<svg xmlns="http://www.w3.org/2000/svg" viewBox="0 0 720 240" width="720" height="240" role="img" aria-label="Adults vaccinated against flu, 2021 to 2022 season" font-family="-apple-system, BlinkMacSystemFont, &#x27;Segoe UI&#x27;, Roboto, &#x27;Helvetica Neue&#x27;, Arial, sans-serif"><rect width="720" height="240" fill="#ffffff"/><text x="0" y="22" font-size="18" font-weight="700" fill="#000000" letter-spacing="-0.2">Adults vaccinated against flu, 2021 to 2022 season</text><text x="0" y="66" font-size="15" fill="#1c1c1c" font-weight="400">White</text><text x="720" y="66" font-size="15" text-anchor="end" fill="#000000" font-weight="700">54%</text><rect x="0" y="76" width="720" height="8" rx="4.0" fill="#f1f0ee"/><rect x="0" y="76" width="388.8" height="8" rx="4.0" fill="#a3a3a8"/><text x="0" y="116" font-size="15" fill="#1c1c1c" font-weight="400">Black</text><text x="720" y="116" font-size="15" text-anchor="end" fill="#000000" font-weight="700">42%</text><rect x="0" y="126" width="720" height="8" rx="4.0" fill="#f1f0ee"/><rect x="0" y="126" width="302.4" height="8" rx="4.0" fill="#a3a3a8"/><text x="0" y="166" font-size="15" fill="#1c1c1c" font-weight="600">American Indian and Alaska Native</text><text x="720" y="166" font-size="15" text-anchor="end" fill="#000000" font-weight="700">41%</text><rect x="0" y="176" width="720" height="8" rx="4.0" fill="#f1f0ee"/><rect x="0" y="176" width="295.2" height="8" rx="4.0" fill="#ff0000"/><text x="0" y="216" font-size="15" fill="#1c1c1c" font-weight="400">Hispanic</text><text x="720" y="216" font-size="15" text-anchor="end" fill="#000000" font-weight="700">38%</text><rect x="0" y="226" width="720" height="8" rx="4.0" fill="#f1f0ee"/><rect x="0" y="226" width="273.6" height="8" rx="4.0" fill="#a3a3a8"/></svg>